<svg width="355" height="355" viewBox="0 0 355 355" fill="none" xmlns="http://www.w3.org/2000/svg">
<path fill-rule="evenodd" clip-rule="evenodd" d="M343.355 56.3942C343.355 56.3942 320.545 69.1987 309.755 80.9423C299.069 92.5744 289.303 115 289.303 115C289.303 115 276.892 92.6559 265.199 80.9423C253.838 69.5611 231.355 56.3942 231.355 56.3942C231.355 56.3942 253.976 45.4484 265.199 34.9423C277.545 23.3853 289.303 0 289.303 0C289.303 0 298.403 23.4306 309.755 34.9423C320.457 45.7939 343.355 56.3942 343.355 56.3942ZM80.9 355L91.4 322.9H162.2L172.7 355H242.9L165.5 142.6H88.7L11 355H80.9ZM126.8 213.7L146 272.8H107.6L126.8 213.7ZM324.631 355V142.6H258.031V355H324.631Z" fill="url(#paint0_linear_31_6)"/>
<defs>
<linearGradient id="paint0_linear_31_6" x1="177.178" y1="0" x2="177.178" y2="355" gradientUnits="userSpaceOnUse">
<stop stop-color="#AC40DF"/>
<stop offset="1" stop-color="#FF9999"/>
</linearGradient>
</defs>
</svg>
