<svg width="1430" height="1118" viewBox="0 0 1430 1118" fill="none" xmlns="http://www.w3.org/2000/svg">
<path d="M671.148 993H435.148L400.148 1100H167.148L426.148 392H682.148L940.148 1100H706.148L671.148 993ZM617.148 826L553.148 629L489.148 826H617.148ZM1212.59 392V1100H990.586V392H1212.59Z" fill="white" fill-opacity="0.05"/>
<path d="M1159.4 248.973C1190.42 215.172 1256 178.317 1256 178.317C1256 178.317 1190.17 147.807 1159.4 116.573C1126.76 83.4395 1100.6 16 1100.6 16C1100.6 16 1066.79 83.3089 1031.3 116.573C999.033 146.812 934 178.317 934 178.317C934 178.317 998.637 216.215 1031.3 248.973C1064.92 282.688 1100.6 347 1100.6 347C1100.6 347 1128.68 282.453 1159.4 248.973Z" fill="white" fill-opacity="0.05"/>
</svg>
