<svg width="345" height="249" viewBox="0 0 345 249" fill="none" xmlns="http://www.w3.org/2000/svg">
<g clip-path="url(#clip0_2001_2)">
<g filter="url(#filter0_d_2001_2)">
<path d="M312.431 46.7783L55.1182 14.9901C46.6593 13.9451 39.0272 19.3692 38.0715 27.1052L19.1232 180.484C18.1675 188.22 24.2501 195.339 32.7091 196.384L290.022 228.172C298.481 229.217 306.113 223.793 307.069 216.057L326.017 62.6777C326.973 54.9417 320.89 47.8233 312.431 46.7783Z" fill="#171720"/>
</g>
<path d="M57.5942 48.1287C56.7135 48.0199 55.9395 47.7821 55.2721 47.4152C54.6189 47.0382 54.1255 46.5744 53.7918 46.0236C53.4596 45.4611 53.3282 44.8464 53.3976 44.1795L55.2547 44.4089C55.2479 44.9888 55.4434 45.5047 55.841 45.9567C56.2529 46.3987 56.8929 46.6733 57.7608 46.7805C58.5904 46.883 59.2644 46.7766 59.7828 46.4615C60.3154 46.1362 60.6185 45.6759 60.692 45.0806C60.7497 44.6137 60.6562 44.217 60.4114 43.8905C60.1666 43.5639 59.8431 43.2989 59.4406 43.0951C59.0382 42.8913 58.4904 42.6577 57.7973 42.3943C56.9425 42.0754 56.2601 41.7778 55.75 41.5014C55.2527 41.2267 54.8399 40.8438 54.5118 40.353C54.1979 39.852 54.0878 39.2222 54.1815 38.4635C54.2637 37.7981 54.5217 37.2315 54.9552 36.7636C55.3888 36.2958 55.9547 35.9628 56.6531 35.7646C57.3641 35.568 58.1537 35.5234 59.0216 35.6306C60.2724 35.7851 61.2582 36.1972 61.9788 36.867C62.7123 37.5383 63.0717 38.353 63.057 39.3111L61.1424 39.0745C61.1363 38.5997 60.9188 38.1581 60.4897 37.7496C60.0622 37.3294 59.4592 37.0712 58.6806 36.975C57.953 36.8851 57.3379 36.9869 56.8352 37.2803C56.3338 37.562 56.045 38.0123 55.9685 38.6309C55.9138 39.0744 56.0031 39.4529 56.2365 39.7661C56.4827 40.081 56.7942 40.3387 57.1712 40.5393C57.5623 40.7299 58.1101 40.9634 58.8145 41.2401C59.6678 41.5707 60.3488 41.8799 60.8575 42.168C61.3676 42.4443 61.786 42.8337 62.1126 43.3363C62.4407 43.8271 62.5572 44.4578 62.462 45.2282C62.3885 45.8235 62.147 46.3625 61.7375 46.8452C61.328 47.3279 60.7648 47.6908 60.0479 47.9341C59.3311 48.1774 58.5132 48.2422 57.5942 48.1287ZM74.8257 44.889C74.7882 45.1925 74.7294 45.5112 74.6493 45.845L66.2636 44.809C66.2106 45.7624 66.47 46.5469 67.0419 47.1627C67.628 47.7684 68.3805 48.128 69.2995 48.2416C70.0525 48.3346 70.6974 48.2543 71.2341 48.0006C71.785 47.7368 72.1957 47.3491 72.4663 46.8374L74.3425 47.0692C73.9478 47.9566 73.2932 48.6402 72.3787 49.1197C71.4657 49.5876 70.3837 49.7443 69.1329 49.5897C68.1373 49.4668 67.2691 49.1521 66.5283 48.6458C65.8001 48.1411 65.2589 47.4876 64.9044 46.6854C64.5514 45.8715 64.4362 44.9684 64.5588 43.9762C64.6814 42.984 65.0058 42.1412 65.5321 41.4478C66.0583 40.7543 66.7352 40.2573 67.5628 39.9566C68.4046 39.6458 69.336 39.5535 70.3572 39.6796C71.3527 39.8026 72.2089 40.1098 72.9257 40.6013C73.6425 41.0928 74.1618 41.714 74.4837 42.4648C74.8199 43.2055 74.9338 44.0136 74.8257 44.889ZM73.0671 44.3341C73.1421 43.727 73.0595 43.1895 72.8193 42.7213C72.5805 42.2415 72.2195 41.8592 71.7364 41.5743C71.2675 41.2794 70.7267 41.0941 70.114 41.0184C69.2334 40.9096 68.4485 41.0734 67.7597 41.5097C67.0836 41.9476 66.6446 42.6163 66.4428 43.5157L73.0671 44.3341ZM79.6355 42.3191L78.9368 47.9745C78.8791 48.4414 78.9465 48.7875 79.139 49.0127C79.3329 49.2263 79.6979 49.3662 80.234 49.4324L81.5167 49.5909L81.3502 50.9391L79.7802 50.7451C78.8102 50.6253 78.1079 50.3311 77.6734 49.8627C77.2388 49.3942 77.0792 48.6931 77.1946 47.7593L77.8933 42.1038L76.534 41.9359L76.6962 40.6227L78.0555 40.7907L78.354 38.3744L80.0962 38.5896L79.7977 41.0059L82.5355 41.3441L82.3733 42.6573L79.6355 42.3191ZM96.7929 40.4568L95.6789 49.474C95.5549 50.4778 95.1172 51.2414 94.3657 51.7648C93.6157 52.2766 92.6855 52.4639 91.5751 52.3267C90.4519 52.1879 89.5895 51.7733 88.9881 51.0827C88.388 50.3805 88.1536 49.4983 88.2848 48.4361L90.0271 48.6513C89.9662 49.2482 90.0723 49.7531 90.3453 50.166C90.631 50.5805 91.0993 50.828 91.7503 50.9085C92.4012 50.9889 92.9078 50.8737 93.2702 50.5629C93.634 50.2405 93.8498 49.805 93.9176 49.2564L95.0315 40.2392L96.7929 40.4568ZM103.274 53.8075C102.291 53.6861 101.423 53.3714 100.669 52.8635C99.9284 52.3573 99.3741 51.7022 99.0069 50.8983C98.6542 50.0845 98.5387 49.1814 98.6613 48.1892C98.7824 47.2087 99.1189 46.3733 99.6707 45.683C100.237 44.9827 100.946 44.4837 101.799 44.1861C102.654 43.877 103.579 43.7838 104.575 43.9068C105.57 44.0298 106.445 44.3453 107.198 44.8531C107.953 45.3494 108.515 45.9993 108.882 46.8032C109.262 47.6086 109.39 48.5073 109.268 49.4995C109.145 50.4917 108.794 51.3372 108.216 52.036C107.651 52.7247 106.936 53.2229 106.068 53.5305C105.2 53.8381 104.269 53.9305 103.274 53.8075ZM103.447 52.4067C104.072 52.484 104.676 52.4222 105.258 52.2216C105.84 52.021 106.33 51.6727 106.728 51.1767C107.139 50.6823 107.392 50.05 107.487 49.2796C107.582 48.5092 107.497 47.835 107.232 47.257C106.967 46.6791 106.581 46.2286 106.077 45.9056C105.574 45.5709 105.01 45.365 104.385 45.2877C103.747 45.2089 103.143 45.2705 102.573 45.4728C102.019 45.665 101.548 46.0098 101.163 46.5073C100.777 47.0048 100.537 47.6388 100.442 48.4092C100.345 49.1913 100.417 49.8696 100.657 50.4445C100.91 51.0209 101.281 51.4756 101.771 51.8087C102.263 52.1301 102.821 52.3294 103.447 52.4067ZM113.67 47.0037C114.099 46.4759 114.679 46.0736 115.413 45.7969C116.147 45.5202 116.955 45.4362 117.835 45.545C118.78 45.6618 119.604 45.9709 120.306 46.4724C121.009 46.974 121.531 47.6252 121.872 48.4258C122.216 49.2148 122.326 50.0995 122.205 51.08C122.086 52.0488 121.762 52.8859 121.234 53.5909C120.707 54.2961 120.034 54.8114 119.216 55.137C118.411 55.4643 117.543 55.5703 116.611 55.4552C115.705 55.3432 114.929 55.0637 114.285 54.6167C113.653 54.1713 113.2 53.6472 112.924 53.0443L112.706 54.8127L110.964 54.5975L112.564 41.6408L114.306 41.856L113.67 47.0037ZM120.425 50.8601C120.514 50.1364 120.433 49.4864 120.18 48.91C119.928 48.3336 119.544 47.8715 119.029 47.5235C118.528 47.1771 117.952 46.9637 117.301 46.8833C116.663 46.8045 116.051 46.8771 115.466 47.1011C114.895 47.315 114.411 47.6759 114.011 48.1834C113.626 48.681 113.389 49.2857 113.301 49.9977C113.211 50.7214 113.293 51.3774 113.543 51.9653C113.809 52.5434 114.192 53.0112 114.692 53.3693C115.206 53.7173 115.782 53.9307 116.42 54.0095C117.071 54.0899 117.682 54.0232 118.253 53.8092C118.838 53.5852 119.323 53.2245 119.708 52.7269C120.095 52.2178 120.334 51.5954 120.425 50.8601ZM132.256 44.8379L130.748 57.0417L129.006 56.8264L130.514 44.6226L132.256 44.8379ZM140.036 48.2699C141.313 48.4276 142.303 48.9113 143.006 49.7211C143.711 50.5193 143.981 51.5837 143.816 52.9143L143.118 58.5698L141.395 58.3569L142.065 52.9291C142.183 51.9719 142.012 51.2102 141.551 50.6435C141.091 50.0653 140.408 49.7202 139.501 49.6082C138.583 49.4947 137.816 49.6667 137.202 50.1241C136.601 50.5832 136.239 51.3146 136.115 52.3185L135.46 57.6237L133.717 57.4085L134.903 47.8135L136.645 48.0287L136.476 49.3944C136.881 48.9468 137.395 48.625 138.014 48.429C138.648 48.2347 139.322 48.1817 140.036 48.2699ZM151.256 51.167L149.054 50.895L148.031 59.1768L146.289 58.9615L147.312 50.6798L145.953 50.5118L146.115 49.1987L147.474 49.3666L147.559 48.6837C147.691 47.6099 148.088 46.8649 148.748 46.4487C149.423 46.0224 150.43 45.8921 151.771 46.0577L151.606 47.3884C150.84 47.2938 150.281 47.3668 149.927 47.6075C149.587 47.8381 149.379 48.2686 149.301 48.899L149.217 49.5818L151.418 49.8538L151.256 51.167ZM156.821 60.4226C155.838 60.3012 154.97 59.9865 154.216 59.4787C153.476 58.9724 152.921 58.3173 152.554 57.5135C152.201 56.6996 152.086 55.7966 152.208 54.8044C152.33 53.8239 152.666 52.9885 153.218 52.2982C153.784 51.5978 154.493 51.0989 155.347 50.8013C156.201 50.4921 157.126 50.399 158.122 50.522C159.117 50.645 159.992 50.9604 160.745 51.4683C161.501 51.9645 162.062 52.6145 162.429 53.4183C162.809 54.2238 162.938 55.1225 162.815 56.1147C162.692 57.1069 162.341 57.9523 161.763 58.6512C161.198 59.3399 160.483 59.8381 159.615 60.1457C158.748 60.4532 157.816 60.5456 156.821 60.4226ZM156.994 59.0219C157.62 59.0992 158.223 59.0374 158.805 58.8368C159.387 58.6362 159.877 58.2879 160.275 57.7919C160.686 57.2975 160.939 56.6651 161.034 55.8947C161.13 55.1243 161.044 54.4501 160.779 53.8722C160.514 53.2943 160.129 52.8438 159.624 52.5208C159.121 52.1861 158.557 51.9801 157.932 51.9028C157.294 51.824 156.69 51.8857 156.121 52.0879C155.566 52.2801 155.096 52.6249 154.71 53.1224C154.324 53.62 154.084 54.2539 153.989 55.0243C153.892 55.8064 153.964 56.4848 154.204 57.0596C154.457 57.636 154.829 58.0908 155.318 58.4238C155.81 58.7453 156.368 58.9446 156.994 59.0219Z" fill="white" fill-opacity="0.6"/>
<path d="M302.792 99.6273L51.6058 68.596C49.4911 68.3347 47.583 69.6908 47.3441 71.6248L37.5671 150.766C37.3282 152.7 38.8489 154.479 40.9636 154.74L292.15 185.772C294.265 186.033 296.173 184.677 296.412 182.743L306.189 103.602C306.428 101.668 304.907 99.8886 302.792 99.6273Z" fill="#D9D9D9" fill-opacity="0.02"/>
<path d="M302.749 99.9775L51.5626 68.9462C49.6593 68.711 47.9421 69.9315 47.727 71.6721L37.9501 150.813C37.735 152.554 39.1036 154.155 41.0069 154.39L292.194 185.422C294.097 185.657 295.814 184.436 296.029 182.696L305.806 103.555C306.021 101.814 304.652 100.213 302.749 99.9775Z" stroke="white" stroke-opacity="0.3"/>
<path d="M63.651 87.903L63.3291 88.8729L60.419 88.5134L57.6509 97.0738L56.2572 96.9016L59.0252 88.3412L56.1151 87.9817L56.4371 87.0118L63.651 87.903ZM68.3715 90.4771C69.076 90.5641 69.668 90.7652 70.1474 91.0804C70.6381 91.3878 70.9886 91.7816 71.1987 92.2627C71.4201 92.7358 71.4957 93.2571 71.4253 93.8265C71.4011 94.0226 71.3462 94.2576 71.2605 94.5314C71.1897 94.7694 71.0921 95.0133 70.968 95.2632L64.2594 94.4345C64.2159 94.6189 64.189 94.7528 64.1786 94.8369C64.099 95.4812 64.246 96.0113 64.6197 96.4273C65.0047 96.8353 65.5393 97.0813 66.2234 97.1658C66.8259 97.2402 67.3673 97.1791 67.8477 96.9825C68.3395 96.778 68.7294 96.4749 69.0173 96.0746L70.5183 96.26C70.0596 96.9521 69.4185 97.4844 68.5949 97.8569C67.7828 98.2209 66.8764 98.3415 65.8757 98.2178C64.8241 98.0879 64.0105 97.708 63.4353 97.0773C62.8715 96.4388 62.649 95.6384 62.7678 94.6768C62.8013 94.4058 62.8676 94.1203 62.967 93.8197C63.2182 93.0451 63.6156 92.3875 64.1591 91.8481C64.7026 91.3087 65.3361 90.9219 66.0594 90.6892C66.7942 90.4479 67.5648 90.3774 68.3715 90.4771ZM69.8722 94.1893C69.9259 94.0061 69.9625 93.8357 69.9822 93.6767C70.056 93.0793 69.9038 92.5912 69.5255 92.2124C69.1575 91.8349 68.6416 91.6055 67.9779 91.5235C67.2631 91.4352 66.5882 91.5701 65.9531 91.9275C65.3192 92.2758 64.854 92.8106 64.5574 93.5327L69.8722 94.1893ZM72.4649 94.9931C72.7161 94.2185 73.1078 93.5651 73.64 93.0335C74.1835 92.4942 74.8174 92.1032 75.542 91.8606C76.2665 91.6181 77.027 91.5464 77.8234 91.6448C78.8547 91.7722 79.628 92.1002 80.1433 92.6282C80.6688 93.1574 80.912 93.8324 80.8729 94.6524L79.3719 94.4669C79.3785 93.9935 79.2147 93.5992 78.8806 93.2828C78.5567 92.9676 78.0884 92.7725 77.4758 92.6968C76.6793 92.5984 75.9538 92.7648 75.2993 93.1959C74.6561 93.6191 74.1912 94.277 73.9046 95.171C73.8155 95.4728 73.7582 95.7267 73.7329 95.9319C73.6487 96.6133 73.7826 97.166 74.1347 97.5885C74.4879 98.0019 74.9963 98.2496 75.6601 98.3316C76.2727 98.4072 76.8198 98.3419 77.3014 98.1361C77.7932 97.9317 78.1917 97.6012 78.4967 97.1461L79.9977 97.3316C79.5332 98.0706 78.8886 98.6309 78.0639 99.0125C77.2404 99.385 76.3233 99.5085 75.3124 99.3836C74.2606 99.2537 73.4574 98.875 72.9026 98.2469C72.3581 97.62 72.1446 96.8307 72.2623 95.8782C72.298 95.5889 72.3656 95.2937 72.4649 94.9931ZM87.7259 92.8539C88.5632 92.9573 89.2105 93.2556 89.6681 93.748C90.1267 94.2313 90.3064 94.8742 90.2072 95.6775C90.1702 95.9766 90.1113 96.2438 90.0302 96.4805L88.5983 100.897L87.2198 100.727L88.5987 96.4885C88.6637 96.2974 88.7095 96.0948 88.7361 95.8797C88.8064 95.3104 88.6864 94.8547 88.3762 94.5127C88.0762 94.1721 87.6198 93.9642 87.0072 93.8885C86.272 93.7977 85.6181 93.9302 85.0454 94.2861C84.4829 94.6433 84.0756 95.2137 83.8232 95.9981L83.8266 95.9701L82.4718 100.14L81.078 99.9679L84.365 89.8504L85.7587 90.0226L84.5546 93.7278C84.9502 93.3784 85.4268 93.1294 85.9843 92.98C86.5532 92.8228 87.1337 92.7807 87.7259 92.8539ZM97.4463 94.0547C98.314 94.1619 98.982 94.4627 99.4497 94.9564C99.9186 95.4409 100.103 96.0894 100.002 96.9018C99.9655 97.2009 99.9073 97.4639 99.8272 97.6908L98.3952 102.107L97.0168 101.937L98.3956 97.6988C98.4604 97.5077 98.5065 97.3051 98.533 97.0901C98.6034 96.5207 98.4832 96.065 98.1732 95.723C97.8732 95.3824 97.4168 95.1745 96.8042 95.0988C96.069 95.008 95.4151 95.1406 94.8424 95.4964C94.2797 95.8536 93.8726 96.424 93.6201 97.2084L93.6236 97.1804L92.2687 101.35L90.875 101.178L93.3089 93.6858L94.7027 93.858L94.3516 94.9381C94.7481 94.5796 95.2203 94.3251 95.7677 94.1744C96.315 94.0237 96.8742 93.984 97.4463 94.0547ZM104.21 93.7668C103.985 93.7391 103.804 93.6506 103.667 93.5007C103.541 93.3429 103.491 93.1611 103.517 92.9559C103.551 92.6758 103.693 92.4516 103.942 92.2832C104.192 92.1057 104.465 92.0349 104.761 92.0715C104.996 92.1006 105.177 92.189 105.304 92.3376C105.431 92.4863 105.481 92.6674 105.454 92.8824C105.419 93.1625 105.277 93.3916 105.027 93.5691C104.778 93.7375 104.506 93.8034 104.21 93.7668ZM104.5 95.0683L102.066 102.561L100.672 102.389L103.106 94.8961L104.5 95.0683ZM105.132 99.0287C105.383 98.2541 105.775 97.6007 106.307 97.0692C106.85 96.5297 107.484 96.1388 108.209 95.8963C108.933 95.6537 109.694 95.582 110.49 95.6804C111.522 95.8078 112.294 96.1358 112.81 96.6638C113.336 97.193 113.579 97.868 113.54 98.688L112.039 98.5025C112.045 98.0291 111.881 97.6349 111.547 97.3184C111.223 97.0032 110.755 96.8081 110.143 96.7324C109.346 96.634 108.62 96.8004 107.966 97.2315C107.323 97.6547 106.858 98.3127 106.571 99.2066C106.482 99.5084 106.425 99.7623 106.4 99.9675C106.315 100.649 106.449 101.202 106.801 101.624C107.155 102.037 107.663 102.285 108.327 102.367C108.939 102.443 109.486 102.377 109.968 102.172C110.46 101.967 110.858 101.637 111.163 101.182L112.664 101.367C112.2 102.106 111.555 102.666 110.731 103.048C109.907 103.421 108.99 103.544 107.979 103.419C106.928 103.289 106.124 102.911 105.569 102.283C105.025 101.656 104.811 100.866 104.929 99.9138C104.965 99.6246 105.032 99.3293 105.132 99.0287ZM114.436 100.164C114.687 99.3985 115.078 98.75 115.61 98.2185C116.154 97.6791 116.778 97.2869 117.481 97.0418C118.196 96.798 118.931 96.7231 119.686 96.8164C120.421 96.9072 121.011 97.1273 121.455 97.4758C121.899 97.8244 122.186 98.2295 122.316 98.6914L122.764 97.3247L124.173 97.4988L121.74 104.991L120.33 104.817L120.798 103.424C120.375 103.827 119.844 104.141 119.204 104.365C118.567 104.58 117.885 104.643 117.16 104.553C116.506 104.473 115.945 104.275 115.476 103.961C115.008 103.638 114.665 103.221 114.448 102.711C114.231 102.201 114.162 101.632 114.239 101.007C114.274 100.727 114.339 100.446 114.436 100.164ZM121.557 101.058C121.622 100.867 121.668 100.659 121.696 100.435C121.78 99.7536 121.622 99.1887 121.221 98.741C120.832 98.2855 120.295 98.0151 119.611 97.9306C119.09 97.8662 118.576 97.9165 118.068 98.0813C117.571 98.2474 117.127 98.5246 116.737 98.9123C116.347 99.3 116.06 99.7766 115.876 100.342C115.811 100.533 115.764 100.745 115.735 100.979C115.65 101.67 115.802 102.243 116.191 102.699C116.583 103.145 117.12 103.411 117.804 103.495C118.324 103.56 118.834 103.509 119.331 103.343C119.84 103.169 120.289 102.887 120.679 102.499C121.081 102.103 121.373 101.623 121.557 101.058ZM128.776 95.3369L125.489 105.454L124.095 105.282L127.382 95.1647L128.776 95.3369ZM133.117 102.486C133.368 101.711 133.76 101.058 134.292 100.526C134.835 99.987 135.47 99.5961 136.194 99.3535C136.918 99.1109 137.679 99.0392 138.475 99.1376C139.507 99.2651 140.28 99.593 140.795 100.121C141.321 100.65 141.564 101.325 141.525 102.145L140.024 101.96C140.03 101.486 139.867 101.092 139.532 100.776C139.208 100.46 138.74 100.265 138.128 100.19C137.331 100.091 136.605 100.258 135.951 100.689C135.308 101.112 134.843 101.77 134.556 102.664C134.467 102.966 134.41 103.22 134.385 103.425C134.301 104.106 134.434 104.659 134.787 105.081C135.14 105.495 135.648 105.742 136.312 105.824C136.925 105.9 137.471 105.835 137.953 105.629C138.445 105.425 138.843 105.094 139.149 104.639L140.65 104.824C140.185 105.563 139.54 106.124 138.716 106.505C137.892 106.878 136.975 107.001 135.964 106.876C134.913 106.747 134.109 106.368 133.554 105.74C133.01 105.113 132.796 104.324 132.914 103.371C132.95 103.082 133.017 102.787 133.117 102.486ZM145.405 108.043C144.701 107.956 144.094 107.748 143.585 107.42C143.088 107.083 142.72 106.659 142.483 106.146C142.247 105.624 142.168 105.045 142.246 104.41C142.354 103.542 142.671 102.775 143.199 102.11C143.729 101.436 144.402 100.936 145.219 100.611C146.048 100.286 146.936 100.183 147.886 100.3C148.59 100.387 149.197 100.599 149.704 100.937C150.223 101.267 150.601 101.693 150.837 102.215C151.084 102.729 151.168 103.308 151.089 103.952C150.981 104.821 150.659 105.587 150.121 106.25C149.583 106.914 148.9 107.408 148.071 107.732C147.244 108.057 146.355 108.16 145.405 108.043ZM145.707 106.985C146.371 107.067 146.988 106.978 147.559 106.716C148.132 106.446 148.6 106.058 148.963 105.553C149.337 105.039 149.563 104.47 149.64 103.845C149.728 103.135 149.57 102.565 149.167 102.137C148.766 101.698 148.227 101.437 147.553 101.354C146.89 101.272 146.277 101.367 145.714 101.639C145.153 101.902 144.696 102.29 144.342 102.806C143.988 103.322 143.771 103.897 143.693 104.532C143.608 105.223 143.756 105.786 144.137 106.222C144.52 106.649 145.044 106.903 145.707 106.985ZM158.098 101.548C158.966 101.655 159.634 101.956 160.101 102.449C160.57 102.934 160.754 103.582 160.654 104.395C160.617 104.694 160.559 104.957 160.479 105.184L159.047 109.6L157.668 109.43L159.047 105.192C159.113 105.001 159.158 104.798 159.185 104.583C159.255 104.013 159.136 103.558 158.825 103.216C158.525 102.875 158.068 102.667 157.456 102.592C156.721 102.501 156.067 102.633 155.494 102.989C154.932 103.346 154.524 103.917 154.272 104.701L154.275 104.673L152.92 108.843L151.527 108.671L153.961 101.179L155.354 101.351L155.003 102.431C155.4 102.073 155.872 101.818 156.419 101.667C156.967 101.517 157.527 101.477 158.098 101.548ZM163.697 108.041C163.649 108.178 163.619 108.297 163.606 108.4C163.577 108.633 163.633 108.811 163.773 108.933C163.925 109.056 164.179 109.139 164.535 109.183L165.562 109.31L165.214 110.362L163.958 110.207C163.295 110.125 162.808 109.946 162.5 109.671C162.203 109.398 162.086 108.994 162.152 108.462C162.177 108.257 162.223 108.058 162.288 107.867L163.72 103.451L162.648 103.318L162.976 102.292L164.064 102.427L164.67 100.539L166.079 100.713L165.473 102.601L167.648 102.87L167.319 103.896L165.129 103.625L163.697 108.041ZM172.997 103.402C173.702 103.489 174.294 103.691 174.773 104.006C175.264 104.313 175.615 104.707 175.825 105.188C176.046 105.661 176.122 106.183 176.051 106.752C176.027 106.948 175.972 107.183 175.886 107.457C175.816 107.695 175.718 107.939 175.594 108.189L168.885 107.36C168.842 107.544 168.815 107.678 168.805 107.762C168.725 108.407 168.872 108.937 169.246 109.353C169.631 109.761 170.165 110.007 170.849 110.091C171.452 110.166 171.994 110.105 172.474 109.908C172.965 109.703 173.356 109.4 173.643 109L175.144 109.185C174.685 109.877 174.044 110.41 173.221 110.782C172.409 111.146 171.503 111.267 170.502 111.143C169.45 111.013 168.636 110.633 168.061 110.003C167.498 109.364 167.275 108.564 167.394 107.602C167.427 107.331 167.494 107.046 167.593 106.745C167.844 105.971 168.242 105.313 168.785 104.773C169.329 104.234 169.962 103.847 170.685 103.615C171.42 103.373 172.191 103.303 172.997 103.402ZM174.498 107.115C174.552 106.931 174.588 106.761 174.608 106.602C174.682 106.005 174.53 105.517 174.151 105.138C173.784 104.76 173.268 104.531 172.604 104.449C171.889 104.361 171.214 104.495 170.579 104.853C169.945 105.201 169.48 105.736 169.183 106.458L174.498 107.115ZM182.972 104.621C183.84 104.728 184.508 105.029 184.976 105.522C185.445 106.007 185.629 106.655 185.528 107.468C185.491 107.767 185.433 108.03 185.353 108.257L183.921 112.673L182.543 112.503L183.922 108.265C183.986 108.074 184.032 107.871 184.059 107.656C184.129 107.086 184.009 106.631 183.699 106.289C183.399 105.948 182.943 105.74 182.33 105.665C181.595 105.574 180.941 105.706 180.368 106.062C179.806 106.419 179.399 106.99 179.146 107.774L179.15 107.746L177.795 111.916L176.401 111.744L178.835 104.252L180.229 104.424L179.878 105.504C180.274 105.145 180.746 104.891 181.294 104.74C181.841 104.59 182.4 104.55 182.972 104.621ZM188.571 111.114C188.523 111.251 188.493 111.37 188.48 111.473C188.451 111.706 188.507 111.884 188.648 112.006C188.798 112.129 189.052 112.212 189.41 112.256L190.436 112.383L190.088 113.435L188.832 113.28C188.168 113.198 187.683 113.019 187.375 112.744C187.076 112.471 186.961 112.067 187.026 111.535C187.052 111.33 187.097 111.131 187.162 110.94L188.594 106.524L187.522 106.391L187.851 105.365L188.938 105.5L189.545 103.612L190.954 103.786L190.347 105.674L192.522 105.943L192.193 106.968L190.003 106.698L188.571 111.114ZM209.954 108.096L204.901 115.265L203.461 115.087L203.388 108.878L199.417 114.587L197.978 114.41L197.777 106.592L199.202 106.768L199.095 113.296L203.199 107.262L204.639 107.439L204.645 113.939L208.575 107.926L209.954 108.096ZM212.275 109.862C212.674 109.399 213.146 109.059 213.691 108.842C214.237 108.625 214.836 108.557 215.489 108.638L215.066 109.922L214.699 109.877C213.974 109.787 213.344 109.889 212.81 110.184C212.286 110.48 211.891 111.037 211.624 111.858L210.297 115.931L208.903 115.759L211.337 108.267L212.731 108.439L212.275 109.862ZM218.154 107.843C217.93 107.816 217.749 107.727 217.612 107.577C217.486 107.419 217.436 107.238 217.461 107.033C217.496 106.752 217.638 106.528 217.886 106.36C218.136 106.182 218.409 106.111 218.706 106.148C218.941 106.177 219.121 106.266 219.248 106.414C219.375 106.563 219.425 106.744 219.399 106.959C219.364 107.239 219.221 107.468 218.972 107.646C218.723 107.814 218.451 107.88 218.154 107.843ZM218.444 109.145L216.01 116.637L214.617 116.465L217.05 108.973L218.444 109.145ZM220.759 115.091C220.711 115.227 220.681 115.346 220.668 115.449C220.639 115.683 220.695 115.86 220.836 115.982C220.986 116.105 221.24 116.188 221.598 116.233L222.624 116.359L222.276 117.411L221.02 117.256C220.356 117.174 219.871 116.995 219.563 116.721C219.264 116.447 219.149 116.044 219.214 115.511C219.24 115.306 219.285 115.108 219.35 114.917L220.782 110.5L219.71 110.368L220.039 109.342L221.126 109.476L221.733 107.589L223.142 107.763L222.535 109.65L224.71 109.919L224.381 110.945L222.191 110.674L220.759 115.091ZM230.06 110.452C230.764 110.539 231.356 110.74 231.836 111.055C232.326 111.363 232.676 111.756 232.887 112.237C233.108 112.711 233.184 113.232 233.113 113.801C233.089 113.997 233.035 114.232 232.949 114.506C232.878 114.744 232.78 114.988 232.656 115.238L225.948 114.409C225.904 114.594 225.877 114.728 225.867 114.812C225.787 115.456 225.934 115.986 226.308 116.402C226.693 116.81 227.228 117.056 227.912 117.141C228.514 117.215 229.055 117.154 229.536 116.957C230.028 116.753 230.417 116.45 230.705 116.049L232.206 116.235C231.748 116.927 231.107 117.459 230.283 117.832C229.471 118.196 228.565 118.316 227.564 118.193C226.512 118.063 225.699 117.683 225.123 117.052C224.559 116.414 224.337 115.613 224.456 114.652C224.489 114.381 224.556 114.095 224.655 113.795C224.906 113.02 225.304 112.362 225.847 111.823C226.39 111.283 227.024 110.897 227.748 110.664C228.483 110.423 229.253 110.352 230.06 110.452ZM231.56 114.164C231.614 113.981 231.651 113.81 231.67 113.651C231.744 113.054 231.592 112.566 231.214 112.187C230.846 111.81 230.33 111.58 229.666 111.498C228.951 111.41 228.276 111.545 227.641 111.902C227.007 112.251 226.542 112.785 226.246 113.507L231.56 114.164ZM236.835 112.896C237.234 112.433 237.706 112.093 238.251 111.876C238.797 111.659 239.396 111.591 240.049 111.672L239.626 112.956L239.258 112.911C238.534 112.821 237.904 112.923 237.37 113.218C236.847 113.514 236.451 114.071 236.184 114.892L234.856 118.966L233.462 118.793L235.896 111.301L237.29 111.473L236.835 112.896ZM54.9323 109.011C54.7077 108.983 54.5268 108.894 54.3898 108.745C54.2641 108.587 54.214 108.405 54.2394 108.2C54.274 107.92 54.4158 107.695 54.6646 107.527C54.9146 107.35 55.1877 107.279 55.4838 107.315C55.7187 107.344 55.8995 107.433 56.0263 107.581C56.1531 107.73 56.2032 107.911 56.1767 108.126C56.1421 108.406 55.9997 108.636 55.7497 108.813C55.5009 108.981 55.2284 109.047 54.9323 109.011ZM55.2224 110.312L52.7885 117.805L51.3947 117.632L53.8287 110.14L55.2224 110.312ZM61.7353 110.975C62.6032 111.082 63.271 111.383 63.7387 111.876C64.2075 112.361 64.3918 113.009 64.2914 113.822C64.2545 114.121 64.196 114.384 64.1162 114.611L62.6842 119.027L61.3058 118.857L62.6846 114.619C62.7496 114.428 62.7954 114.225 62.822 114.01C62.8923 113.44 62.7724 112.985 62.4622 112.643C62.1622 112.302 61.7058 112.094 61.0931 112.019C60.358 111.928 59.704 112.06 59.1314 112.416C58.5689 112.773 58.1615 113.344 57.9091 114.128L57.9126 114.1L56.5577 118.27L55.164 118.098L57.5979 110.606L58.9917 110.778L58.6406 111.858C59.0373 111.499 59.5093 111.245 60.0566 111.094C60.604 110.944 61.1635 110.904 61.7353 110.975ZM67.3341 117.468C67.2862 117.605 67.2559 117.724 67.2432 117.827C67.2144 118.06 67.2702 118.238 67.4106 118.36C67.5613 118.483 67.8154 118.566 68.1727 118.61L69.1989 118.737L68.8512 119.789L67.5953 119.634C66.9317 119.552 66.4457 119.373 66.1376 119.098C65.8397 118.825 65.7236 118.421 65.7894 117.889C65.8147 117.684 65.86 117.485 65.925 117.294L67.357 112.878L66.2849 112.745L66.6138 111.719L67.7012 111.854L68.3076 109.966L69.7167 110.14L69.1103 112.028L71.2852 112.297L70.9563 113.322L68.7661 113.052L67.3341 117.468ZM76.6348 112.829C77.3394 112.916 77.9313 113.118 78.4107 113.433C78.9015 113.74 79.2519 114.134 79.462 114.615C79.6835 115.088 79.759 115.609 79.6887 116.179C79.6645 116.375 79.6095 116.61 79.5239 116.884C79.453 117.122 79.3555 117.366 79.2313 117.616L72.5228 116.787C72.4792 116.971 72.4523 117.105 72.442 117.189C72.3624 117.834 72.5094 118.364 72.883 118.78C73.268 119.188 73.8027 119.434 74.4868 119.518C75.0892 119.593 75.6306 119.531 76.1111 119.335C76.6028 119.13 76.9927 118.827 77.2806 118.427L78.7816 118.612C78.3229 119.304 77.6818 119.837 76.8583 120.209C76.0461 120.573 75.1398 120.694 74.1391 120.57C73.0874 120.44 72.2739 120.06 71.6987 119.43C71.1348 118.791 70.9123 117.991 71.0311 117.029C71.0646 116.758 71.131 116.473 71.2303 116.172C71.4815 115.397 71.879 114.74 72.4224 114.2C72.9659 113.661 73.5995 113.274 74.3228 113.042C75.0575 112.8 75.8282 112.73 76.6348 112.829ZM78.1355 116.542C78.1893 116.358 78.2259 116.188 78.2455 116.029C78.3193 115.432 78.1671 114.944 77.7888 114.565C77.4208 114.187 76.9049 113.958 76.2412 113.876C75.5265 113.788 74.8515 113.922 74.2164 114.28C73.5825 114.628 73.1173 115.163 72.8208 115.885L78.1355 116.542ZM83.4099 115.273C83.8092 114.811 84.2814 114.471 84.8265 114.254C85.3717 114.037 85.971 113.969 86.6245 114.049L86.2015 115.334L85.8339 115.288C85.109 115.199 84.4795 115.301 83.9455 115.596C83.4218 115.891 83.0263 116.449 82.7591 117.269L81.4316 121.343L80.0379 121.171L82.4718 113.679L83.8656 113.851L83.4099 115.273ZM92.3227 114.753C93.1911 114.861 93.8584 115.161 94.3261 115.655C94.7949 116.139 94.9792 116.788 94.8788 117.6C94.8419 117.899 94.7837 118.162 94.7036 118.389L93.2716 122.806L91.8932 122.636L93.272 118.397C93.3376 118.206 93.3829 118.004 93.4094 117.789C93.4798 117.219 93.3603 116.764 93.0496 116.422C92.7496 116.081 92.2932 115.873 91.6806 115.797C90.9454 115.707 90.2915 115.839 89.7188 116.195C89.1565 116.552 88.7492 117.123 88.4968 117.907L88.5002 117.879L87.1454 122.049L85.7516 121.877L88.1856 114.384L89.5791 114.557L89.2282 115.637C89.6252 115.278 90.0967 115.024 90.6441 114.873C91.1914 114.722 91.7514 114.683 92.3227 114.753ZM98.4889 123.578C97.6113 123.47 96.915 123.19 96.4002 122.737C95.8862 122.285 95.6686 121.737 95.7482 121.092C95.7631 120.971 95.7795 120.883 95.7964 120.828L97.1595 120.997C97.0694 121.393 97.1568 121.736 97.4213 122.024C97.6965 122.314 98.1205 122.495 98.6918 122.565C99.2638 122.636 99.7354 122.595 100.107 122.441C100.49 122.28 100.703 122.017 100.748 121.653C100.786 121.345 100.674 121.084 100.409 120.872C100.146 120.659 99.7305 120.413 99.1631 120.135C98.6642 119.893 98.2561 119.672 97.9388 119.472C97.6215 119.271 97.3629 119.017 97.1624 118.707C96.9638 118.389 96.8909 118.01 96.9451 117.571C96.9982 117.142 97.1787 116.775 97.4852 116.472C97.8025 116.17 98.2125 115.959 98.7138 115.841C99.227 115.715 99.7953 115.691 100.418 115.768C101.276 115.874 101.956 116.157 102.459 116.617C102.962 117.077 103.174 117.625 103.096 118.26C103.081 118.381 103.064 118.474 103.046 118.538L101.713 118.374L101.749 118.207C101.795 117.834 101.674 117.52 101.383 117.266C101.105 117.004 100.71 116.842 100.2 116.779C99.6996 116.717 99.2734 116.769 98.921 116.934C98.5794 117.1 98.3868 117.356 98.3441 117.701C98.3037 118.028 98.4206 118.303 98.6931 118.527C98.9664 118.75 99.4005 119.012 99.9954 119.313C100.493 119.565 100.891 119.789 101.187 119.987C101.486 120.175 101.73 120.419 101.921 120.717C102.113 121.016 102.183 121.37 102.132 121.781C102.076 122.23 101.88 122.604 101.542 122.903C101.215 123.204 100.785 123.412 100.252 123.526C99.7206 123.64 99.1322 123.658 98.4889 123.578ZM110.198 116.962C111.036 117.065 111.683 117.363 112.14 117.856C112.599 118.339 112.779 118.982 112.68 119.785C112.643 120.084 112.584 120.352 112.503 120.588L111.071 125.005L109.692 124.834L111.071 120.596C111.137 120.405 111.182 120.202 111.208 119.987C111.279 119.418 111.159 118.962 110.849 118.62C110.549 118.28 110.092 118.072 109.48 117.996C108.744 117.905 108.09 118.038 107.518 118.394C106.956 118.751 106.548 119.321 106.296 120.106L106.299 120.078L104.944 124.248L103.55 124.076L106.837 113.958L108.231 114.13L107.027 117.835C107.423 117.486 107.899 117.237 108.457 117.088C109.026 116.931 109.606 116.888 110.198 116.962ZM116.885 116.664C116.661 116.636 116.48 116.548 116.343 116.398C116.217 116.24 116.167 116.059 116.192 115.853C116.227 115.573 116.369 115.349 116.617 115.181C116.868 115.003 117.141 114.932 117.437 114.969C117.672 114.998 117.853 115.086 117.979 115.235C118.106 115.384 118.156 115.565 118.129 115.78C118.095 116.06 117.953 116.289 117.702 116.467C117.454 116.635 117.181 116.701 116.885 116.664ZM117.175 117.966L114.741 125.458L113.347 125.286L115.781 117.794L117.175 117.966ZM120.494 119.812C120.916 119.418 121.446 119.114 122.084 118.899C122.724 118.675 123.401 118.607 124.115 118.695C124.769 118.776 125.33 118.973 125.799 119.287C126.28 119.593 126.629 119.996 126.847 120.497C127.066 120.989 127.137 121.548 127.06 122.173C127.026 122.444 126.96 122.73 126.861 123.03C126.612 123.787 126.216 124.439 125.67 124.988C125.136 125.538 124.511 125.94 123.795 126.193C123.091 126.447 122.365 126.528 121.619 126.436C120.905 126.348 120.32 126.128 119.866 125.778C119.423 125.42 119.121 125.009 118.961 124.543L117.371 129.481L115.978 129.308L119.551 118.259L120.944 118.431L120.494 119.812ZM125.436 122.854C125.502 122.663 125.548 122.451 125.577 122.218C125.661 121.536 125.508 120.977 125.116 120.539C124.725 120.093 124.183 119.827 123.488 119.741C122.978 119.678 122.468 119.734 121.959 119.908C121.452 120.073 120.998 120.353 120.596 120.749C120.206 121.137 119.92 121.609 119.737 122.165C119.672 122.356 119.625 122.568 119.596 122.801C119.512 123.483 119.665 124.052 120.054 124.507C120.455 124.955 120.997 125.221 121.681 125.306C122.202 125.37 122.711 125.319 123.209 125.153C123.718 124.979 124.167 124.698 124.557 124.31C124.959 123.914 125.252 123.429 125.436 122.854ZM127.886 127.167C127.651 127.138 127.465 127.049 127.328 126.899C127.201 126.751 127.151 126.57 127.178 126.355C127.212 126.074 127.354 125.85 127.603 125.682C127.853 125.504 128.131 125.434 128.437 125.472C128.673 125.501 128.853 125.59 128.98 125.738C129.107 125.887 129.157 126.068 129.13 126.283C129.096 126.563 128.953 126.792 128.703 126.97C128.455 127.138 128.182 127.204 127.886 127.167ZM131.102 127.565C130.867 127.536 130.681 127.447 130.544 127.297C130.417 127.148 130.367 126.967 130.393 126.752C130.428 126.472 130.57 126.247 130.819 126.079C131.068 125.902 131.347 125.832 131.653 125.869C131.888 125.898 132.069 125.987 132.196 126.135C132.323 126.284 132.373 126.465 132.346 126.68C132.311 126.96 132.169 127.189 131.919 127.367C131.67 127.535 131.398 127.601 131.102 127.565ZM134.317 127.962C134.083 127.933 133.896 127.844 133.759 127.694C133.633 127.545 133.583 127.364 133.609 127.149C133.644 126.869 133.786 126.645 134.034 126.476C134.285 126.299 134.562 126.229 134.869 126.267C135.104 126.296 135.285 126.384 135.411 126.533C135.538 126.681 135.588 126.862 135.562 127.077C135.527 127.358 135.385 127.587 135.135 127.764C134.886 127.933 134.614 127.998 134.317 127.962Z" fill="white" fill-opacity="0.6"/>
</g>
<defs>
<filter id="filter0_d_2001_2" x="-0.975586" y="-1.13879" width="347.092" height="253.44" filterUnits="userSpaceOnUse" color-interpolation-filters="sRGB">
<feFlood flood-opacity="0" result="BackgroundImageFix"/>
<feColorMatrix in="SourceAlpha" type="matrix" values="0 0 0 0 0 0 0 0 0 0 0 0 0 0 0 0 0 0 127 0" result="hardAlpha"/>
<feOffset dy="4"/>
<feGaussianBlur stdDeviation="10"/>
<feComposite in2="hardAlpha" operator="out"/>
<feColorMatrix type="matrix" values="0 0 0 0 1 0 0 0 0 1 0 0 0 0 1 0 0 0 0.2 0"/>
<feBlend mode="normal" in2="BackgroundImageFix" result="effect1_dropShadow_2001_2"/>
<feBlend mode="normal" in="SourceGraphic" in2="effect1_dropShadow_2001_2" result="shape"/>
</filter>
<clipPath id="clip0_2001_2">
<rect width="321" height="211" fill="white" transform="translate(25.8701) rotate(7.04258)"/>
</clipPath>
</defs>
</svg>
