<svg width="370" height="311" viewBox="0 0 370 311" fill="none" xmlns="http://www.w3.org/2000/svg">
<g clip-path="url(#clip0_2001_3)">
<g filter="url(#filter0_d_2001_3)">
<path d="M284.66 19.3872L32.9263 81.442C24.6508 83.482 19.5977 91.8514 21.6398 100.135L64.5317 274.132C66.5738 282.416 74.9379 287.478 83.2134 285.438L334.947 223.383C343.222 221.343 348.275 212.974 346.233 204.69L303.341 30.6932C301.299 22.4091 292.935 17.3472 284.66 19.3872Z" fill="#171720"/>
</g>
<path d="M47.609 113.762C46.7474 113.974 45.9363 114.015 45.1756 113.885C44.4242 113.738 43.7888 113.444 43.2692 113.002C42.7465 112.547 42.3912 111.965 42.203 111.256L44.0198 110.808C44.2332 111.405 44.6109 111.862 45.1527 112.18C45.7039 112.481 46.4041 112.528 47.2531 112.318C48.0647 112.118 48.6523 111.761 49.0157 111.247C49.3885 110.718 49.4964 110.134 49.3392 109.497C49.2159 108.997 48.9785 108.625 48.6267 108.38C48.2749 108.135 47.873 107.982 47.4209 107.921C46.9688 107.86 46.37 107.822 45.6245 107.807C44.7075 107.795 43.959 107.74 43.3791 107.645C42.8117 107.546 42.2821 107.305 41.7904 106.923C41.3081 106.524 40.9668 105.919 40.7666 105.106C40.5909 104.394 40.6164 103.718 40.8429 103.079C41.0694 102.44 41.4704 101.89 42.0458 101.43C42.6336 100.967 43.3521 100.631 44.2012 100.421C45.4249 100.12 46.4993 100.18 47.4245 100.601C48.3621 101.02 49.0057 101.723 49.3552 102.711L47.4822 103.173C47.2965 102.688 46.9264 102.315 46.372 102.054C45.8144 101.78 45.1548 101.737 44.3931 101.925C43.6814 102.101 43.147 102.431 42.7899 102.917C42.4297 103.39 42.3313 103.958 42.4946 104.621C42.6117 105.096 42.8383 105.451 43.1745 105.686C43.5232 105.919 43.911 106.068 44.3382 106.135C44.7747 106.187 45.3735 106.225 46.1346 106.249C47.0547 106.275 47.8063 106.341 48.3893 106.449C48.9692 106.545 49.5065 106.791 50.0013 107.186C50.493 107.568 50.8405 108.172 51.0439 108.997C51.201 109.635 51.1804 110.276 50.9819 110.922C50.7834 111.567 50.3964 112.147 49.8209 112.66C49.2454 113.173 48.5081 113.54 47.609 113.762ZM62.4319 104.102C62.512 104.427 62.5781 104.775 62.63 105.147L54.4261 107.169C54.7381 108.166 55.2772 108.875 56.0433 109.296C56.8188 109.702 57.656 109.794 58.5551 109.572C59.2918 109.39 59.8621 109.071 60.2659 108.613C60.679 108.14 60.9147 107.592 60.9727 106.967L62.8083 106.515C62.777 107.57 62.4263 108.512 61.7563 109.34C61.0831 110.155 60.1347 110.714 58.911 111.016C57.937 111.256 57.009 111.253 56.127 111.006C55.2574 110.756 54.5055 110.285 53.8713 109.593C53.234 108.888 52.7844 108.005 52.5225 106.942C52.2606 105.88 52.2433 104.896 52.4706 103.991C52.6979 103.087 53.1401 102.328 53.797 101.715C54.4634 101.087 55.296 100.65 56.295 100.403C57.2689 100.163 58.1829 100.163 59.0369 100.404C59.8908 100.644 60.61 101.09 61.1945 101.741C61.7884 102.377 62.2008 103.164 62.4319 104.102ZM60.5835 104.179C60.4233 103.529 60.1425 103.009 59.7413 102.617C59.337 102.213 58.8559 101.953 58.2979 101.839C57.7493 101.709 57.1753 101.718 56.5759 101.866C55.7143 102.078 55.0454 102.535 54.5691 103.235C54.1053 103.933 53.9499 104.78 54.1028 105.777L60.5835 104.179ZM65.9381 99.697L67.431 105.753C67.5542 106.253 67.7481 106.583 68.0128 106.743C68.2744 106.891 68.6674 106.9 69.1919 106.771L70.4468 106.462L70.8027 107.905L69.2668 108.284C68.3178 108.518 67.5521 108.475 66.9698 108.154C66.3874 107.834 65.973 107.173 65.7265 106.173L64.2336 100.117L62.9038 100.445L62.5571 99.0388L63.887 98.7109L63.2491 96.1235L64.9536 95.7033L65.5914 98.2908L68.2698 97.6305L68.6165 99.0367L65.9381 99.697ZM88.9414 106.059L85.6956 104.095C85.102 104.427 84.4742 104.674 83.8124 104.838C82.6012 105.136 81.4268 105.127 80.2892 104.811C79.1484 104.482 78.1599 103.884 77.3235 103.016C76.4964 102.133 75.9257 101.054 75.6114 99.7787C75.2971 98.5037 75.3024 97.2892 75.6272 96.1351C75.9614 94.9654 76.5586 93.9763 77.4189 93.1675C78.2761 92.3462 79.3103 91.7864 80.5216 91.4878C81.7453 91.1861 82.9274 91.1997 84.0679 91.5285C85.206 91.8446 86.1868 92.4381 87.0103 93.3091C87.8345 94.18 88.405 95.2592 88.7223 96.5467C89.0305 97.7967 89.0336 98.9893 88.7302 100.125C88.4275 101.26 87.8664 102.234 87.0462 103.046L91.1515 105.514L88.9414 106.059ZM77.3533 99.3493C77.6091 100.387 78.0401 101.248 78.6462 101.934C79.2649 102.617 79.9887 103.082 80.8177 103.328C81.6592 103.572 82.5357 103.581 83.4473 103.356C84.3588 103.132 85.1243 102.717 85.7436 102.114C86.376 101.507 86.8005 100.76 87.0184 99.8705C87.2491 98.9783 87.2362 98.0135 86.9804 96.9761C86.7216 95.9261 86.2846 95.0659 85.6688 94.3956C85.0626 93.7097 84.3453 93.2435 83.516 92.9971C82.6872 92.7505 81.8107 92.7412 80.8867 92.969C79.9626 93.1968 79.1909 93.6124 78.5715 94.216C77.952 94.8195 77.527 95.5673 77.2966 96.4594C77.0756 97.336 77.0945 98.2993 77.3533 99.3493ZM99.192 90.0079L101.725 100.283L100.02 100.703L99.646 99.1841C99.451 99.7891 99.0972 100.314 98.5838 100.759C98.0807 101.188 97.4793 101.488 96.7796 101.661C95.9809 101.858 95.2224 101.872 94.5054 101.704C93.7854 101.524 93.1565 101.148 92.6186 100.578C92.0934 100.005 91.7133 99.2436 91.4791 98.2936L89.9955 92.2749L91.6812 91.8594L93.1094 97.653C93.359 98.6655 93.8078 99.3836 94.4551 99.8074C95.1 100.219 95.8653 100.315 96.7516 100.097C97.6634 99.8718 98.3118 99.4136 98.6976 98.7218C99.0834 98.03 99.1438 97.1466 98.8788 96.0717L97.4876 90.4281L99.192 90.0079ZM102.691 94.5552C102.432 93.5052 102.418 92.5342 102.648 91.642C102.875 90.7375 103.303 89.9756 103.933 89.3564C104.574 88.7343 105.35 88.3109 106.262 88.0861C107.161 87.8645 107.989 87.8659 108.746 88.0902C109.503 88.3146 110.117 88.6806 110.587 89.1879L110.124 87.3129L111.848 86.8882L114.38 97.163L112.657 97.5877L112.186 95.6753C111.997 96.3584 111.614 96.9831 111.038 97.5492C110.472 98.1 109.745 98.4845 108.859 98.703C107.947 98.9278 107.068 98.9059 106.22 98.6375C105.372 98.3692 104.636 97.8811 104.012 97.1732C103.387 96.4654 102.947 95.5927 102.691 94.5552ZM111.386 92.4316C111.195 91.6566 110.872 91.0202 110.419 90.5221C109.965 90.0241 109.432 89.6913 108.822 89.5236C108.22 89.3403 107.601 89.3272 106.964 89.4842C106.327 89.6412 105.784 89.9343 105.333 90.3636C104.883 90.7929 104.572 91.3336 104.402 91.9854C104.231 92.6375 104.242 93.3509 104.433 94.1258C104.627 94.9133 104.952 95.5624 105.409 96.0728C105.863 96.571 106.391 96.9115 106.992 97.0947C107.591 97.2654 108.208 97.2723 108.845 97.1153C109.482 96.9583 110.026 96.6652 110.476 96.2359C110.936 95.7912 111.251 95.2428 111.422 94.5907C111.589 93.9264 111.577 93.2066 111.386 92.4316ZM115.545 82.1581L118.965 96.0329L117.26 96.453L113.84 82.5783L115.545 82.1581ZM119.806 83.1561C119.481 83.2363 119.179 83.1914 118.899 83.0218C118.619 82.8522 118.439 82.6049 118.359 82.2799C118.278 81.9549 118.323 81.6522 118.492 81.3718C118.662 81.0914 118.908 80.9113 119.233 80.8312C119.545 80.7543 119.835 80.8022 120.103 80.9747C120.383 81.1443 120.564 81.3917 120.644 81.7166C120.724 82.0416 120.679 82.3443 120.51 82.6247C120.353 82.9022 120.118 83.0793 119.806 83.1561ZM121.042 84.6217L123.575 94.8965L121.87 95.3166L119.337 85.0418L121.042 84.6217ZM126.372 84.7994L127.865 90.8555C127.988 91.3555 128.183 91.6855 128.447 91.8457C128.708 91.9935 129.102 92.0026 129.626 91.8733L130.881 91.564L131.237 93.0077L129.701 93.3863C128.752 93.6203 127.986 93.577 127.404 93.2564C126.822 92.9359 126.407 92.2756 126.161 91.2757L124.668 85.2195L123.338 85.5474L122.991 84.1411L124.321 83.8133L123.683 81.2259L125.388 80.8057L126.026 83.3932L128.704 82.7329L129.051 84.1391L126.372 84.7994ZM131.238 80.3382C130.913 80.4181 130.611 80.3734 130.33 80.2038C130.05 80.0342 129.87 79.7869 129.79 79.462C129.71 79.137 129.754 78.8343 129.924 78.5539C130.093 78.2735 130.34 78.0932 130.665 78.0132C130.977 77.9362 131.267 77.9841 131.535 78.1568C131.815 78.3264 131.995 78.5737 132.075 78.8987C132.155 79.2236 132.111 79.5264 131.941 79.8068C131.785 80.084 131.55 80.2612 131.238 80.3382ZM132.473 81.8037L135.006 92.0785L133.302 92.4987L130.769 82.2239L132.473 81.8037ZM145.913 83.5226C145.993 83.8476 146.059 84.196 146.111 84.5677L137.907 86.59C138.219 87.5871 138.758 88.2963 139.524 88.7172C140.3 89.1227 141.137 89.2147 142.036 88.9931C142.773 88.8115 143.343 88.4919 143.747 88.0343C144.16 87.5613 144.396 87.0126 144.454 86.3883L146.289 85.9358C146.258 86.9911 145.908 87.9327 145.237 88.7608C144.564 89.5765 143.616 90.1352 142.392 90.4368C141.418 90.6769 140.49 90.6736 139.608 90.427C138.738 90.1773 137.986 89.7063 137.352 89.014C136.715 88.3094 136.266 87.4257 136.004 86.3631C135.742 85.3006 135.724 84.3172 135.952 83.4125C136.179 82.5079 136.621 81.7492 137.278 81.1364C137.944 80.5081 138.777 80.0709 139.776 79.8245C140.75 79.5844 141.664 79.5845 142.518 79.8248C143.372 80.0651 144.091 80.5111 144.676 81.1625C145.27 81.7984 145.682 82.5851 145.913 83.5226ZM144.065 83.6004C143.904 82.9503 143.623 82.4296 143.223 82.0378C142.818 81.6338 142.337 81.3745 141.779 81.26C141.23 81.1301 140.656 81.1389 140.057 81.2867C139.196 81.4991 138.526 81.9558 138.05 82.6565C137.587 83.3542 137.431 84.2015 137.584 85.1979L144.065 83.6004ZM153.202 87.7721C152.415 87.966 151.677 88.0088 150.988 87.9001C150.296 87.7791 149.71 87.5257 149.231 87.1399C148.748 86.7418 148.412 86.2347 148.22 85.6189L149.981 85.1849C150.157 85.6852 150.498 86.0454 151.002 86.2657C151.519 86.483 152.127 86.5055 152.827 86.333C153.476 86.1731 153.953 85.903 154.257 85.5232C154.56 85.1434 154.658 84.7346 154.55 84.2972C154.44 83.8472 154.158 83.5652 153.706 83.4512C153.251 83.3248 152.579 83.2584 151.69 83.2521C150.879 83.2399 150.205 83.1938 149.669 83.1138C149.142 83.0184 148.654 82.8137 148.207 82.4998C147.768 82.1704 147.467 81.6744 147.303 81.012C147.174 80.487 147.211 79.9673 147.416 79.4528C147.62 78.9385 147.978 78.4854 148.491 78.0938C149 77.6898 149.624 77.397 150.361 77.2152C151.497 76.9353 152.485 76.9965 153.327 77.399C154.168 77.8017 154.736 78.4968 155.033 79.4844L153.329 79.9046C153.159 79.3763 152.834 78.999 152.354 78.7725C151.887 78.543 151.322 78.5097 150.661 78.6728C150.049 78.8237 149.594 79.075 149.297 79.4267C148.999 79.7786 148.903 80.1668 149.008 80.5918C149.091 80.9293 149.266 81.1845 149.534 81.3571C149.811 81.5141 150.129 81.6216 150.488 81.6789C150.856 81.7208 151.353 81.7507 151.98 81.7685C152.766 81.7869 153.414 81.8391 153.926 81.9252C154.434 81.9989 154.898 82.1894 155.319 82.4968C155.751 82.8012 156.051 83.2644 156.217 83.8862C156.356 84.4487 156.324 84.9936 156.124 85.5204C155.922 86.0474 155.566 86.513 155.057 86.9169C154.557 87.3054 153.938 87.5906 153.202 87.7721Z" fill="white" fill-opacity="0.6"/>
<path d="M296.789 92.7709L58.5414 151.501C54.6105 152.47 52.2102 156.446 53.1802 160.381C54.1502 164.316 58.1232 166.72 62.054 165.751L300.302 107.021C304.233 106.052 306.633 102.076 305.663 98.1412C304.693 94.2063 300.72 91.8019 296.789 92.7709Z" fill="#4767A5"/>
<path d="M291.336 101.275C289.804 95.0622 283.531 91.2658 277.324 92.7958C271.118 94.3258 267.328 100.603 268.859 106.816C270.391 113.029 276.664 116.825 282.871 115.295C289.077 113.765 292.867 107.488 291.336 101.275Z" fill="white"/>
<path d="M307.882 137.77L69.6341 196.5C65.7032 197.469 63.303 201.445 64.273 205.38C65.243 209.315 69.2159 211.719 73.1468 210.75L311.395 152.02C315.325 151.051 317.726 147.075 316.756 143.14C315.786 139.205 311.813 136.801 307.882 137.77Z" fill="#A55D47"/>
<path d="M318.975 182.769L80.7268 241.5C76.7959 242.469 74.3957 246.444 75.3657 250.379C76.3357 254.314 80.3086 256.718 84.2395 255.749L322.487 197.019C326.418 196.05 328.818 192.074 327.848 188.139C326.878 184.204 322.905 181.8 318.975 182.769Z" fill="#65A547"/>
<path d="M202.784 170.838C201.252 164.625 194.979 160.828 188.772 162.358C182.566 163.888 178.776 170.165 180.308 176.378C181.839 182.591 188.112 186.388 194.319 184.858C200.525 183.328 204.315 177.051 202.784 170.838Z" fill="white"/>
<path d="M264.073 203.463C262.542 197.25 256.269 193.453 250.062 194.983C243.855 196.513 240.066 202.79 241.597 209.003C243.129 215.216 249.402 219.013 255.608 217.483C261.815 215.953 265.605 209.676 264.073 203.463Z" fill="white"/>
</g>
<defs>
<filter id="filter0_d_2001_3" x="1.18668" y="2.9355" width="365.5" height="306.954" filterUnits="userSpaceOnUse" color-interpolation-filters="sRGB">
<feFlood flood-opacity="0" result="BackgroundImageFix"/>
<feColorMatrix in="SourceAlpha" type="matrix" values="0 0 0 0 0 0 0 0 0 0 0 0 0 0 0 0 0 0 127 0" result="hardAlpha"/>
<feOffset dy="4"/>
<feGaussianBlur stdDeviation="10"/>
<feComposite in2="hardAlpha" operator="out"/>
<feColorMatrix type="matrix" values="0 0 0 0 1 0 0 0 0 1 0 0 0 0 1 0 0 0 0.2 0"/>
<feBlend mode="normal" in2="BackgroundImageFix" result="effect1_dropShadow_2001_3"/>
<feBlend mode="normal" in="SourceGraphic" in2="effect1_dropShadow_2001_3" result="shape"/>
</filter>
<clipPath id="clip0_2001_3">
<rect width="321" height="241" fill="white" transform="translate(0 76.8298) rotate(-13.8479)"/>
</clipPath>
</defs>
</svg>
