<svg width="333" height="355" viewBox="0 0 333 355" fill="none" xmlns="http://www.w3.org/2000/svg">
<path fill-rule="evenodd" clip-rule="evenodd" d="M333 56.3942C333 56.3942 310.189 69.1987 299.4 80.9423C288.713 92.5744 278.948 115 278.948 115C278.948 115 266.536 92.6559 254.843 80.9423C243.483 69.5611 221 56.3942 221 56.3942C221 56.3942 243.62 45.4484 254.843 34.9423C267.189 23.3853 278.948 0 278.948 0C278.948 0 288.048 23.4306 299.4 34.9423C310.101 45.7939 333 56.3942 333 56.3942ZM70.5445 355L81.0445 322.9H151.845L162.345 355H232.545L155.145 142.6H78.3445L0.644531 355H70.5445ZM116.445 213.7L135.645 272.8H97.2445L116.445 213.7ZM314.276 355V142.6H247.676V355H314.276Z" fill="white" fill-opacity="0.05"/>
</svg>
