<svg width="722" height="722" viewBox="0 0 722 722" fill="none" xmlns="http://www.w3.org/2000/svg">
<path d="M244.404 253.6L168.204 401.5V466H101.604V401.5L25.4043 253.6H101.604L135.504 328.9L169.404 253.6H244.404ZM363.045 468.1C343.045 468.1 324.645 463.4 307.845 454C291.245 444.6 278.045 431.6 268.245 415C258.445 398.4 253.545 379.7 253.545 358.9C253.545 338.1 258.445 319.4 268.245 302.8C278.045 286.2 291.245 273.3 307.845 264.1C324.645 254.7 343.045 250 363.045 250C383.045 250 401.345 254.7 417.945 264.1C434.545 273.3 447.645 286.2 457.245 302.8C467.045 319.4 471.945 338.1 471.945 358.9C471.945 379.7 467.045 398.4 457.245 415C447.645 431.6 434.445 444.6 417.645 454C401.045 463.4 382.845 468.1 363.045 468.1ZM363.045 406C376.245 406 386.445 401.8 393.645 393.4C400.845 384.8 404.445 373.3 404.445 358.9C404.445 344.3 400.845 332.8 393.645 324.4C386.445 315.8 376.245 311.5 363.045 311.5C349.645 311.5 339.345 315.8 332.145 324.4C324.945 332.8 321.345 344.3 321.345 358.9C321.345 373.3 324.945 384.8 332.145 393.4C339.345 401.8 349.645 406 363.045 406ZM561.071 253.6V373.3C561.071 383.1 563.171 390.9 567.371 396.7C571.771 402.3 578.771 405.1 588.371 405.1C597.971 405.1 605.071 402.3 609.671 396.7C614.271 390.9 616.571 383.1 616.571 373.3V253.6H682.871V373.3C682.871 393.5 678.671 410.8 670.271 425.2C661.871 439.4 650.371 450.1 635.771 457.3C621.171 464.5 604.871 468.1 586.871 468.1C568.871 468.1 552.871 464.5 538.871 457.3C525.071 450.1 514.271 439.4 506.471 425.2C498.671 411 494.771 393.7 494.771 373.3V253.6H561.071Z" fill="white"/>
</svg>
